<svg id="t_logo" data-name="t_logo" xmlns="http://www.w3.org/2000/svg" width="48" height="52.456" viewBox="0 0 48 52.456">
  <path id="lt" data-name="lt" d="M41.789,134.455a6.39,6.39,0,0,1-1.6-1.142V121.859c0-3.052.844-5.7,3.059-6.507l9.45-3.4a8.7,8.7,0,0,0,.639-3.472,13.533,13.533,0,0,0-1.827-6.742,10.575,10.575,0,0,0-5.779-4.7L19.856,88.86,26.6,86.418a3.914,3.914,0,0,1,2.474,0l26.4,8.333A8.611,8.611,0,0,1,60.172,98.9a13.054,13.054,0,0,1,1.616,5.945c0,2.432-.826,5.244-3.39,6.188q-2.277.835-9.109,3.309a10.178,10.178,0,0,0-.647,4.186c0,1.4-.023,8.966-.023,10.323a7.9,7.9,0,0,1-1.147,4.317,3.934,3.934,0,0,1-3.376,1.877A5.2,5.2,0,0,1,41.789,134.455Z" transform="translate(-13.789 -86.215)" fill="#e75020"/>
  <path id="rt" data-name="rt" d="M34.735,106.657a13.082,13.082,0,0,1,2.086,6.936v9.61c0,5.947,2.767,10.8,7.326,12.179l-7.04,2.414a3.729,3.729,0,0,1-1.84.144,4.877,4.877,0,0,1-1.785-.688,10.706,10.706,0,0,1-3.694-3.859,14.051,14.051,0,0,1-1.538-6.9c0-2.442-.015-5.782-.015-10.081a12.959,12.959,0,0,0-2.677-7.437,9.176,9.176,0,0,0-4.424-3.232,8.572,8.572,0,0,1-3.848-3.007,12.067,12.067,0,0,1-2.412-7.076,7.275,7.275,0,0,1,1.506-4.784,4.272,4.272,0,0,1,2.99-1.545,3.964,3.964,0,0,1,1.473.2c1.017.309,1.935.6,2.751.88-.849,4.364,1.712,11.058,6.879,12.871A7.91,7.91,0,0,1,34.735,106.657Z" transform="translate(-14.876 -85.537)" fill="#db0017"/>
</svg>
